<?xml version="1.0" standalone="no"?><!DOCTYPE svg PUBLIC "-//W3C//DTD SVG 1.1//EN" "http://www.w3.org/Graphics/SVG/1.1/DTD/svg11.dtd"><svg t="1644215446272" class="icon" viewBox="0 0 1024 1024" version="1.1" xmlns="http://www.w3.org/2000/svg" p-id="4891" xmlns:xlink="http://www.w3.org/1999/xlink" width="200" height="200"><defs><style type="text/css"></style></defs><path d="M268.2112 926.2592l0-40.96L142.2336 885.2992 142.2336 174.976l239.8976 0L382.1312 97.9712l14.8992-0.256 395.5712 0 0 334.3104 89.1648 0 0 453.2992L621.2864 885.3248l0 40.96L268.2112 926.2592 268.2112 926.2592zM549.2736 856.6528l0-143.5136-207.3344 0 0 143.5136L549.2736 856.6528zM812.1344 815.6928 812.1344 501.6832l-213.7088 0.5632 0 313.4208L812.1344 815.6672zM292.7872 815.6672l0-363.776 109.824 0L402.6112 244.608 211.8912 244.608l0 571.0592L292.7872 815.6672zM549.2736 663.9616l0-161.664-207.3344 0 0 161.664L549.2736 663.9616zM722.9696 451.84 722.9696 167.3472 451.7632 167.3472 451.7632 451.84 722.9696 451.84z" p-id="4892"></path></svg>