<?xml version="1.0" standalone="no"?><!DOCTYPE svg PUBLIC "-//W3C//DTD SVG 1.1//EN" "http://www.w3.org/Graphics/SVG/1.1/DTD/svg11.dtd"><svg t="1655168305845" class="icon" viewBox="0 0 1024 1024" version="1.1" xmlns="http://www.w3.org/2000/svg" p-id="2293" xmlns:xlink="http://www.w3.org/1999/xlink" width="200" height="200"><defs><style type="text/css">@font-face { font-family: feedback-iconfont; src: url("//at.alicdn.com/t/font_1031158_u69w8yhxdu.woff2?t=1630033759944") format("woff2"), url("//at.alicdn.com/t/font_1031158_u69w8yhxdu.woff?t=1630033759944") format("woff"), url("//at.alicdn.com/t/font_1031158_u69w8yhxdu.ttf?t=1630033759944") format("truetype"); }
</style></defs><path d="M939.076842 983.64285 91.673909 983.64285c-5.016247 0-9.203616-1.25355-12.259208-2.167363l-11.924587-3.508917L67.490114 46.031383l11.897981-3.502777c3.063779-0.916882 7.260357-2.171456 12.285814-2.171456L277.831726 40.35715l0 534.132066 353.713974-285.165762 0 283.768949 331.821361-267.511683 9.751085 9.896394c1.396813 1.418302 2.306532 2.812045 2.855024 3.736091l2.995217 3.51915 0 639.258359-3.626597 4.2897C966.016401 977.315748 952.798355 983.64285 939.076842 983.64285zM98.188276 952.943664l840.888566 0c3.793396 0 6.881734-1.431605 9.191336-3.102664L948.268178 357.185029l-347.422687 280.08914L600.845491 353.506243 247.13254 638.670981 247.13254 71.055312 98.188276 71.055312 98.188276 952.943664z" p-id="2294"></path></svg>